<mxfile host="app.diagrams.net" agent="Mozilla/5.0 (Windows NT 10.0; Win64; x64) AppleWebKit/537.36 (KHTML, like Gecko) Chrome/139.0.0.0 Safari/537.36" version="28.1.2">
  <diagram name="Page-1" id="0783ab3e-0a74-02c8-0abd-f7b4e66b4bec">
    <mxGraphModel dx="1093" dy="639" grid="1" gridSize="10" guides="1" tooltips="1" connect="1" arrows="1" fold="1" page="1" pageScale="1" pageWidth="850" pageHeight="1100" background="none" math="0" shadow="0">
      <root>
        <mxCell id="0" />
        <mxCell id="1" parent="0" />
        <mxCell id="1c1d494c118603dd-1" value="Library management system" style="swimlane;html=1;childLayout=stackLayout;startSize=20;rounded=0;shadow=0;comic=0;labelBackgroundColor=none;strokeWidth=1;fontFamily=Verdana;fontSize=12;align=center;fillColor=none;" parent="1" vertex="1">
          <mxGeometry x="40" y="10" width="810.5" height="1000" as="geometry" />
        </mxCell>
        <mxCell id="1c1d494c118603dd-2" value="Student" style="swimlane;html=1;startSize=20;fillColor=#e6d0de;gradientColor=#d5739d;strokeColor=#996185;" parent="1c1d494c118603dd-1" vertex="1">
          <mxGeometry y="20" width="320.5" height="980" as="geometry" />
        </mxCell>
        <mxCell id="Hr0z0QRZqDmkqUyAdxwE-3" value="enquire for book" style="rounded=1;whiteSpace=wrap;html=1;arcSize=40;fontColor=#000000;fillColor=#ffffc0;strokeColor=#ff0000;" parent="1c1d494c118603dd-2" vertex="1">
          <mxGeometry x="60" y="180" width="120" height="40" as="geometry" />
        </mxCell>
        <mxCell id="Hr0z0QRZqDmkqUyAdxwE-4" value="enter book details" style="rounded=1;whiteSpace=wrap;html=1;arcSize=40;fontColor=#000000;fillColor=#ffffc0;strokeColor=#ff0000;" parent="1c1d494c118603dd-2" vertex="1">
          <mxGeometry x="60" y="240" width="120" height="40" as="geometry" />
        </mxCell>
        <mxCell id="Hr0z0QRZqDmkqUyAdxwE-6" value="" style="ellipse;html=1;shape=startState;fillColor=#000000;strokeColor=#ff0000;" parent="1c1d494c118603dd-2" vertex="1">
          <mxGeometry x="105" y="40" width="30" height="30" as="geometry" />
        </mxCell>
        <mxCell id="Hr0z0QRZqDmkqUyAdxwE-7" value="" style="edgeStyle=orthogonalEdgeStyle;html=1;verticalAlign=bottom;endArrow=open;endSize=8;strokeColor=#ff0000;rounded=0;entryX=0.5;entryY=0;entryDx=0;entryDy=0;" parent="1c1d494c118603dd-2" source="Hr0z0QRZqDmkqUyAdxwE-6" edge="1" target="Hr0z0QRZqDmkqUyAdxwE-3">
          <mxGeometry relative="1" as="geometry">
            <mxPoint x="120" y="100" as="targetPoint" />
          </mxGeometry>
        </mxCell>
        <mxCell id="Hr0z0QRZqDmkqUyAdxwE-25" value="" style="shape=line;html=1;strokeWidth=6;strokeColor=#ff0000;" parent="1c1d494c118603dd-2" vertex="1">
          <mxGeometry x="79.5" y="480" width="80.5" height="10" as="geometry" />
        </mxCell>
        <mxCell id="Hr0z0QRZqDmkqUyAdxwE-26" value="" style="edgeStyle=orthogonalEdgeStyle;html=1;verticalAlign=bottom;endArrow=open;endSize=8;strokeColor=#ff0000;rounded=0;" parent="1c1d494c118603dd-2" source="Hr0z0QRZqDmkqUyAdxwE-25" edge="1">
          <mxGeometry relative="1" as="geometry">
            <mxPoint x="120" y="540" as="targetPoint" />
          </mxGeometry>
        </mxCell>
        <mxCell id="Hr0z0QRZqDmkqUyAdxwE-27" value="return book" style="rounded=1;whiteSpace=wrap;html=1;arcSize=40;fontColor=#000000;fillColor=#ffffc0;strokeColor=#ff0000;" parent="1c1d494c118603dd-2" vertex="1">
          <mxGeometry x="59.75" y="540" width="120" height="40" as="geometry" />
        </mxCell>
        <mxCell id="Hr0z0QRZqDmkqUyAdxwE-28" value="" style="edgeStyle=orthogonalEdgeStyle;html=1;verticalAlign=bottom;endArrow=open;endSize=8;strokeColor=#ff0000;rounded=0;" parent="1c1d494c118603dd-2" source="Hr0z0QRZqDmkqUyAdxwE-27" edge="1">
          <mxGeometry relative="1" as="geometry">
            <mxPoint x="410" y="590" as="targetPoint" />
          </mxGeometry>
        </mxCell>
        <mxCell id="Hr0z0QRZqDmkqUyAdxwE-44" value="take card" style="rounded=1;whiteSpace=wrap;html=1;arcSize=40;fontColor=#000000;fillColor=#ffffc0;strokeColor=#ff0000;" parent="1c1d494c118603dd-2" vertex="1">
          <mxGeometry x="50" y="870" width="120" height="40" as="geometry" />
        </mxCell>
        <mxCell id="Hr0z0QRZqDmkqUyAdxwE-45" value="" style="edgeStyle=orthogonalEdgeStyle;html=1;verticalAlign=bottom;endArrow=open;endSize=8;strokeColor=#ff0000;rounded=0;" parent="1c1d494c118603dd-2" source="Hr0z0QRZqDmkqUyAdxwE-44" edge="1">
          <mxGeometry relative="1" as="geometry">
            <mxPoint x="110" y="930" as="targetPoint" />
          </mxGeometry>
        </mxCell>
        <mxCell id="Hr0z0QRZqDmkqUyAdxwE-46" value="" style="ellipse;html=1;shape=endState;fillColor=#000000;strokeColor=#ff0000;" parent="1c1d494c118603dd-2" vertex="1">
          <mxGeometry x="95" y="930" width="30" height="30" as="geometry" />
        </mxCell>
        <mxCell id="Hr0z0QRZqDmkqUyAdxwE-14" value="[valid ]" style="edgeStyle=orthogonalEdgeStyle;html=1;align=left;verticalAlign=bottom;endArrow=open;endSize=8;strokeColor=#ff0000;rounded=0;entryX=0.75;entryY=0.5;entryDx=0;entryDy=0;entryPerimeter=0;" parent="1c1d494c118603dd-1" source="Hr0z0QRZqDmkqUyAdxwE-13" edge="1" target="Hr0z0QRZqDmkqUyAdxwE-32">
          <mxGeometry x="-0.7727" relative="1" as="geometry">
            <mxPoint x="180" y="280" as="targetPoint" />
            <Array as="points">
              <mxPoint x="450" y="280" />
            </Array>
            <mxPoint as="offset" />
          </mxGeometry>
        </mxCell>
        <mxCell id="1c1d494c118603dd-3" value="transaction" style="swimlane;html=1;startSize=20;fillColor=#e6d0de;gradientColor=#d5739d;strokeColor=#996185;" parent="1c1d494c118603dd-1" vertex="1">
          <mxGeometry x="320.5" y="20" width="209.5" height="980" as="geometry" />
        </mxCell>
        <mxCell id="Hr0z0QRZqDmkqUyAdxwE-32" value="" style="shape=line;html=1;strokeWidth=6;strokeColor=#ff0000;" parent="1c1d494c118603dd-3" vertex="1">
          <mxGeometry x="54.5" y="310" width="100.5" height="10" as="geometry" />
        </mxCell>
        <mxCell id="Hr0z0QRZqDmkqUyAdxwE-33" value="" style="edgeStyle=orthogonalEdgeStyle;html=1;verticalAlign=bottom;endArrow=open;endSize=8;strokeColor=#ff0000;rounded=0;exitX=0.557;exitY=1;exitDx=0;exitDy=0;exitPerimeter=0;entryX=0.5;entryY=0;entryDx=0;entryDy=0;" parent="1c1d494c118603dd-3" target="Hr0z0QRZqDmkqUyAdxwE-34" edge="1">
          <mxGeometry relative="1" as="geometry">
            <mxPoint x="108.5" y="670" as="targetPoint" />
            <mxPoint x="108.47849999999994" y="600" as="sourcePoint" />
          </mxGeometry>
        </mxCell>
        <mxCell id="Hr0z0QRZqDmkqUyAdxwE-34" value="" style="rhombus;whiteSpace=wrap;html=1;fontColor=#000000;fillColor=#ffffc0;strokeColor=#ff0000;" parent="1c1d494c118603dd-3" vertex="1">
          <mxGeometry x="69.5" y="630" width="80" height="40" as="geometry" />
        </mxCell>
        <mxCell id="Hr0z0QRZqDmkqUyAdxwE-36" value="" style="edgeStyle=orthogonalEdgeStyle;html=1;align=left;verticalAlign=top;endArrow=open;endSize=8;strokeColor=#ff0000;rounded=0;" parent="1c1d494c118603dd-3" source="Hr0z0QRZqDmkqUyAdxwE-34" edge="1">
          <mxGeometry x="-1" relative="1" as="geometry">
            <mxPoint x="109.5" y="700" as="targetPoint" />
          </mxGeometry>
        </mxCell>
        <mxCell id="Hr0z0QRZqDmkqUyAdxwE-37" value="return book" style="rounded=1;whiteSpace=wrap;html=1;arcSize=40;fontColor=#000000;fillColor=#ffffc0;strokeColor=#ff0000;" parent="1c1d494c118603dd-3" vertex="1">
          <mxGeometry x="49.5" y="700" width="120" height="40" as="geometry" />
        </mxCell>
        <mxCell id="Hr0z0QRZqDmkqUyAdxwE-38" value="" style="edgeStyle=orthogonalEdgeStyle;html=1;verticalAlign=bottom;endArrow=open;endSize=8;strokeColor=#ff0000;rounded=0;" parent="1c1d494c118603dd-3" source="Hr0z0QRZqDmkqUyAdxwE-37" edge="1">
          <mxGeometry relative="1" as="geometry">
            <mxPoint x="109.5" y="770" as="targetPoint" />
          </mxGeometry>
        </mxCell>
        <mxCell id="Hr0z0QRZqDmkqUyAdxwE-39" value="" style="rhombus;whiteSpace=wrap;html=1;fontColor=#000000;fillColor=#ffffc0;strokeColor=#ff0000;" parent="1c1d494c118603dd-3" vertex="1">
          <mxGeometry x="69.5" y="770" width="80" height="40" as="geometry" />
        </mxCell>
        <mxCell id="Hr0z0QRZqDmkqUyAdxwE-41" value="" style="edgeStyle=orthogonalEdgeStyle;html=1;align=left;verticalAlign=top;endArrow=open;endSize=8;strokeColor=#ff0000;rounded=0;" parent="1c1d494c118603dd-3" source="Hr0z0QRZqDmkqUyAdxwE-39" edge="1">
          <mxGeometry x="-1" relative="1" as="geometry">
            <mxPoint x="109.5" y="830" as="targetPoint" />
          </mxGeometry>
        </mxCell>
        <mxCell id="Hr0z0QRZqDmkqUyAdxwE-42" value="update status" style="rounded=1;whiteSpace=wrap;html=1;arcSize=40;fontColor=#000000;fillColor=#ffffc0;strokeColor=#ff0000;" parent="1c1d494c118603dd-3" vertex="1">
          <mxGeometry x="49.5" y="830" width="120" height="40" as="geometry" />
        </mxCell>
        <mxCell id="Hr0z0QRZqDmkqUyAdxwE-16" value="update issue dates and student details" style="rounded=1;whiteSpace=wrap;html=1;arcSize=40;fontColor=#000000;fillColor=#ffffc0;strokeColor=#ff0000;" parent="1c1d494c118603dd-3" vertex="1">
          <mxGeometry x="34.5" y="340" width="150" height="40" as="geometry" />
        </mxCell>
        <mxCell id="Hr0z0QRZqDmkqUyAdxwE-43" value="" style="edgeStyle=orthogonalEdgeStyle;html=1;verticalAlign=bottom;endArrow=open;endSize=8;strokeColor=#ff0000;rounded=0;entryX=0.5;entryY=0;entryDx=0;entryDy=0;" parent="1c1d494c118603dd-1" source="Hr0z0QRZqDmkqUyAdxwE-42" target="Hr0z0QRZqDmkqUyAdxwE-44" edge="1">
          <mxGeometry relative="1" as="geometry">
            <mxPoint x="110" y="780" as="targetPoint" />
          </mxGeometry>
        </mxCell>
        <mxCell id="Hr0z0QRZqDmkqUyAdxwE-12" value="" style="endArrow=classic;html=1;rounded=0;edgeStyle=orthogonalEdgeStyle;exitX=1;exitY=0.5;exitDx=0;exitDy=0;entryX=0;entryY=0.5;entryDx=0;entryDy=0;fillColor=#a20025;strokeColor=#6F0000;" parent="1c1d494c118603dd-1" source="Hr0z0QRZqDmkqUyAdxwE-3" target="Hr0z0QRZqDmkqUyAdxwE-8" edge="1">
          <mxGeometry width="50" height="50" relative="1" as="geometry">
            <mxPoint x="360" y="190" as="sourcePoint" />
            <mxPoint x="540" y="220" as="targetPoint" />
          </mxGeometry>
        </mxCell>
        <mxCell id="Hr0z0QRZqDmkqUyAdxwE-15" value="[invalid]" style="edgeStyle=orthogonalEdgeStyle;html=1;align=left;verticalAlign=top;endArrow=open;endSize=8;strokeColor=#ff0000;rounded=0;entryX=1;entryY=0.5;entryDx=0;entryDy=0;" parent="1c1d494c118603dd-1" source="Hr0z0QRZqDmkqUyAdxwE-13" target="Hr0z0QRZqDmkqUyAdxwE-39" edge="1">
          <mxGeometry x="-1" relative="1" as="geometry">
            <mxPoint x="800" y="790" as="targetPoint" />
            <Array as="points">
              <mxPoint x="800.5" y="290" />
              <mxPoint x="800.5" y="810" />
            </Array>
          </mxGeometry>
        </mxCell>
        <mxCell id="Hr0z0QRZqDmkqUyAdxwE-18" value="" style="endArrow=classic;html=1;rounded=0;edgeStyle=orthogonalEdgeStyle;exitX=0.5;exitY=1;exitDx=0;exitDy=0;entryX=0;entryY=0.5;entryDx=0;entryDy=0;fillColor=#a20025;strokeColor=#6F0000;" parent="1c1d494c118603dd-1" source="Hr0z0QRZqDmkqUyAdxwE-4" target="Hr0z0QRZqDmkqUyAdxwE-16" edge="1">
          <mxGeometry width="50" height="50" relative="1" as="geometry">
            <mxPoint x="360" y="390" as="sourcePoint" />
            <mxPoint x="410" y="340" as="targetPoint" />
          </mxGeometry>
        </mxCell>
        <mxCell id="Hr0z0QRZqDmkqUyAdxwE-21" value="[balance&amp;lt;amount]" style="edgeStyle=orthogonalEdgeStyle;html=1;align=left;verticalAlign=top;endArrow=open;endSize=8;strokeColor=#ff0000;rounded=0;" parent="1c1d494c118603dd-1" source="Hr0z0QRZqDmkqUyAdxwE-19" target="Hr0z0QRZqDmkqUyAdxwE-34" edge="1">
          <mxGeometry x="-1" y="22" relative="1" as="geometry">
            <mxPoint x="180" y="630" as="targetPoint" />
            <Array as="points">
              <mxPoint x="791.5" y="460" />
              <mxPoint x="791.5" y="660" />
            </Array>
            <mxPoint x="-10" y="2" as="offset" />
          </mxGeometry>
        </mxCell>
        <mxCell id="Hr0z0QRZqDmkqUyAdxwE-20" value="[balance&amp;gt;=amount]" style="edgeStyle=orthogonalEdgeStyle;html=1;align=left;verticalAlign=bottom;endArrow=open;endSize=8;strokeColor=#ff0000;rounded=0;" parent="1c1d494c118603dd-1" source="Hr0z0QRZqDmkqUyAdxwE-19" target="Hr0z0QRZqDmkqUyAdxwE-25" edge="1">
          <mxGeometry x="-0.6467" relative="1" as="geometry">
            <mxPoint x="70" y="400" as="targetPoint" />
            <Array as="points">
              <mxPoint x="120" y="460" />
            </Array>
            <mxPoint as="offset" />
          </mxGeometry>
        </mxCell>
        <mxCell id="Hr0z0QRZqDmkqUyAdxwE-30" value="" style="edgeStyle=orthogonalEdgeStyle;rounded=0;orthogonalLoop=1;jettySize=auto;html=1;entryX=0.079;entryY=0.125;entryDx=0;entryDy=0;entryPerimeter=0;fillColor=#a20025;strokeColor=#6F0000;" parent="1c1d494c118603dd-1" source="Hr0z0QRZqDmkqUyAdxwE-25" target="Hr0z0QRZqDmkqUyAdxwE-23" edge="1">
          <mxGeometry relative="1" as="geometry">
            <mxPoint x="600" y="505" as="targetPoint" />
          </mxGeometry>
        </mxCell>
        <mxCell id="1c1d494c118603dd-4" value="Librarian" style="swimlane;html=1;startSize=20;fillColor=light-dark(#A20025,#FFEDF3);fontColor=#ffffff;strokeColor=#6F0000;" parent="1c1d494c118603dd-1" vertex="1">
          <mxGeometry x="530" y="20" width="280" height="980" as="geometry" />
        </mxCell>
        <mxCell id="Hr0z0QRZqDmkqUyAdxwE-8" value="validate student" style="rounded=1;whiteSpace=wrap;html=1;arcSize=40;fontColor=#000000;fillColor=#ffffc0;strokeColor=#ff0000;" parent="1c1d494c118603dd-4" vertex="1">
          <mxGeometry x="80" y="180" width="120" height="40" as="geometry" />
        </mxCell>
        <mxCell id="Hr0z0QRZqDmkqUyAdxwE-9" value="" style="edgeStyle=orthogonalEdgeStyle;html=1;verticalAlign=bottom;endArrow=open;endSize=8;strokeColor=#ff0000;rounded=0;entryX=0.5;entryY=0;entryDx=0;entryDy=0;" parent="1c1d494c118603dd-4" source="Hr0z0QRZqDmkqUyAdxwE-8" target="Hr0z0QRZqDmkqUyAdxwE-13" edge="1">
          <mxGeometry relative="1" as="geometry">
            <mxPoint x="140" y="260" as="targetPoint" />
          </mxGeometry>
        </mxCell>
        <mxCell id="Hr0z0QRZqDmkqUyAdxwE-13" value="" style="rhombus;whiteSpace=wrap;html=1;fontColor=#000000;fillColor=#ffffc0;strokeColor=#ff0000;" parent="1c1d494c118603dd-4" vertex="1">
          <mxGeometry x="100" y="250" width="80" height="40" as="geometry" />
        </mxCell>
        <mxCell id="Hr0z0QRZqDmkqUyAdxwE-17" value="" style="edgeStyle=orthogonalEdgeStyle;html=1;verticalAlign=bottom;endArrow=open;endSize=8;strokeColor=#ff0000;rounded=0;exitX=0.533;exitY=1;exitDx=0;exitDy=0;exitPerimeter=0;" parent="1c1d494c118603dd-4" source="Hr0z0QRZqDmkqUyAdxwE-16" edge="1">
          <mxGeometry relative="1" as="geometry">
            <mxPoint x="130" y="420" as="targetPoint" />
          </mxGeometry>
        </mxCell>
        <mxCell id="Hr0z0QRZqDmkqUyAdxwE-19" value="" style="rhombus;whiteSpace=wrap;html=1;fontColor=#000000;fillColor=#ffffc0;strokeColor=#ff0000;" parent="1c1d494c118603dd-4" vertex="1">
          <mxGeometry x="90" y="420" width="80" height="40" as="geometry" />
        </mxCell>
        <mxCell id="y5FOMfPBoqmUPTNk3mT_-2" value="" style="edgeStyle=orthogonalEdgeStyle;rounded=0;orthogonalLoop=1;jettySize=auto;html=1;" edge="1" parent="1c1d494c118603dd-4" source="Hr0z0QRZqDmkqUyAdxwE-23" target="y5FOMfPBoqmUPTNk3mT_-1">
          <mxGeometry relative="1" as="geometry" />
        </mxCell>
        <mxCell id="Hr0z0QRZqDmkqUyAdxwE-23" value="debit account" style="rounded=1;whiteSpace=wrap;html=1;arcSize=40;fontColor=#000000;fillColor=#ffffc0;strokeColor=#ff0000;" parent="1c1d494c118603dd-4" vertex="1">
          <mxGeometry x="70" y="480" width="120" height="40" as="geometry" />
        </mxCell>
        <mxCell id="Hr0z0QRZqDmkqUyAdxwE-24" value="" style="edgeStyle=orthogonalEdgeStyle;html=1;verticalAlign=bottom;endArrow=open;endSize=8;strokeColor=#ff0000;rounded=0;" parent="1c1d494c118603dd-4" source="Hr0z0QRZqDmkqUyAdxwE-23" edge="1">
          <mxGeometry relative="1" as="geometry">
            <mxPoint x="-90.5" y="590" as="targetPoint" />
          </mxGeometry>
        </mxCell>
        <mxCell id="y5FOMfPBoqmUPTNk3mT_-1" value="" style="whiteSpace=wrap;html=1;fillColor=#ffffc0;strokeColor=#ff0000;fontColor=#000000;rounded=1;arcSize=40;" vertex="1" parent="1c1d494c118603dd-4">
          <mxGeometry x="70" y="590" width="120" height="60" as="geometry" />
        </mxCell>
      </root>
    </mxGraphModel>
  </diagram>
</mxfile>
